<?xml version="1.0" ?><!-- Uploaded to: SVG Repo, www.svgrepo.com, Generator: SVG Repo Mixer Tools -->
<svg width="800px" height="800px" viewBox="0 0 28 28" fill="none" xmlns="http://www.w3.org/2000/svg"><path d="M15.8489 16.4551C15.8235 16.4756 15.802 16.499 15.7844 16.5244C15.7336 16.5908 15.7043 16.6748 15.7043 16.7646V18.9502L14.7219 17.9668C14.6497 17.8936 14.554 17.8545 14.4582 17.8496C14.3489 17.8447 14.2395 17.8838 14.1555 17.9668L14.0149 18.1084C13.8586 18.2646 13.8586 18.5176 14.0149 18.6738L15.7786 20.4395L15.9192 20.5811L15.9348 20.5957C16.0911 20.7373 16.3332 20.7324 16.4856 20.5811L16.6282 20.4404L16.6516 20.416L18.3918 18.6748C18.4211 18.6455 18.4446 18.6133 18.4622 18.5781C18.5012 18.5029 18.5149 18.418 18.5051 18.335C18.4934 18.252 18.4563 18.1719 18.3918 18.1084L18.2512 17.9678C18.2004 17.916 18.136 17.8809 18.0696 17.8633C18.0422 17.8564 18.0149 17.8516 17.9875 17.8506C17.9329 17.8477 17.8743 17.8574 17.8215 17.8789C17.7727 17.8984 17.7258 17.9277 17.6848 17.9678L16.7043 18.9482V16.7646C16.7043 16.543 16.5247 16.3643 16.304 16.3643H16.1047C16.0422 16.3643 15.9836 16.3779 15.9309 16.4033C15.9016 16.417 15.8743 16.4346 15.8489 16.4551Z" fill="#000000"/><path clip-rule="evenodd" d="M4.5332 10.0254C5.44141 6.3291 8.50781 3.5 12.2871 3.5C15.6055 3.5 18.3828 5.68945 19.6191 8.72266C19.709 8.71484 19.7949 8.71289 19.8809 8.71289C22.1738 8.71289 23.9434 10.5156 24.3203 12.7393C25.7598 12.9209 27 14.248 27 15.6689C27 17.1982 25.8633 18.626 24.2422 18.626L23.3984 18.6318L23.2949 18.626H22.2024C22.136 21.8809 19.4758 24.5 16.2043 24.5C12.9348 24.5 10.2786 21.8857 10.2063 18.6338L4.875 18.6318L4.69531 18.6357H4.08594C4.01172 18.6357 3.9375 18.6279 3.86523 18.6113C2.7207 18.3525 1.82227 17.5352 1.28906 16.5049C0.935547 15.8242 0.742188 15.0508 0.742188 14.2842C0.742188 12.0801 2.33594 10.1055 4.5332 10.0254ZM23.3848 16.626H21.9055C21.4875 15.3525 20.6536 14.2666 19.5657 13.5293C18.6067 12.8799 17.4504 12.5 16.2043 12.5C13.5422 12.5 11.2844 14.2344 10.4993 16.6348L4.8457 16.6318L4.78711 16.6338L4.69531 16.6357H4.21289C3.4707 16.4082 2.74219 15.4648 2.74219 14.2842C2.74219 12.9316 3.70508 12.0225 4.67188 12.0225C4.81641 12.0225 4.95508 12.041 5.08984 12.0762C5.36523 12.1475 5.6582 12.0986 5.89648 11.9404C6.13281 11.7822 6.29102 11.5293 6.33203 11.2471C6.80078 7.90723 9.36133 5.5 12.2871 5.5C14.9395 5.5 17.2852 7.4707 18.0566 10.335C18.1348 10.626 18.3398 10.8662 18.6172 10.9893C18.7949 11.0684 18.9902 11.0928 19.1797 11.0625C19.2832 11.0459 19.3828 11.0137 19.4785 10.9648C19.6445 10.8789 19.7676 10.7979 19.8652 10.7256L19.8828 10.7129C21.1719 10.7139 22.3945 11.9141 22.3945 13.626L22.3926 13.7861C22.375 14.126 22.5332 14.4502 22.8105 14.6475C23.0879 14.8447 23.7031 14.8818 24.0195 14.7559C24.0898 14.7275 24.1641 14.7119 24.2422 14.7119C24.5625 14.7119 25 15.0371 25 15.6689C25 16.3008 24.5625 16.626 24.2422 16.626L23.4883 16.6318L23.3848 16.626ZM16.2043 14.5C13.9954 14.5 12.2043 16.291 12.2043 18.5C12.2043 20.709 13.9954 22.5 16.2043 22.5C18.4133 22.5 20.2043 20.709 20.2043 18.5C20.2043 16.291 18.4133 14.5 16.2043 14.5Z" fill="#000000" fill-rule="evenodd"/></svg>