<?xml version="1.0" ?><!-- Uploaded to: SVG Repo, www.svgrepo.com, Generator: SVG Repo Mixer Tools -->
<svg width="800px" height="800px" viewBox="0 0 28 28" fill="none" xmlns="http://www.w3.org/2000/svg"><path clip-rule="evenodd" d="M3 3C3 2.96548 3.00174 2.93137 3.00513 2.89776C3.01871 2.76329 3.05876 2.6367 3.11997 2.52334C3.17324 2.42468 3.24253 2.33605 3.32434 2.26099C3.50101 2.09886 3.73602 2 3.99398 2H15.9218C16.4707 2 16.9158 2.44772 16.9158 3V4H24.0043C24.7982 4 25.2718 4.89015 24.8314 5.5547L22.2533 9.4453C22.0307 9.7812 22.0307 10.2188 22.2533 10.5547L24.8314 14.4453C25.2718 15.1099 24.7982 16 24.0043 16H14.9278C14.3788 16 13.9338 15.5523 13.9338 15V14H4.98797V25C4.98797 25.5523 4.54295 26 3.99398 26C3.44502 26 3 25.5523 3 25V3ZM15.9218 14H21.5884C21.8276 14 21.9706 13.7337 21.8385 13.5343L20.5992 11.6641C19.9314 10.6564 19.9314 9.3436 20.5992 8.3359L21.8385 6.46571C21.9706 6.26629 21.8276 6 21.5884 6H16.9158V13C16.9158 13.5523 16.4707 14 15.9218 14ZM5.28797 12C5.12228 12 4.98797 11.8657 4.98797 11.7V4.3C4.98797 4.13431 5.12228 4 5.28797 4H14.6278C14.7935 4 14.9278 4.13431 14.9278 4.3V11.7C14.9278 11.8657 14.7935 12 14.6278 12H5.28797Z" fill="#000000" fill-rule="evenodd"/></svg>