<?xml version="1.0" ?><!-- Uploaded to: SVG Repo, www.svgrepo.com, Generator: SVG Repo Mixer Tools -->
<svg width="800px" height="800px" viewBox="0 0 28 28" fill="none" xmlns="http://www.w3.org/2000/svg"><path d="M14.9856 2.99812C14.9855 2.44673 14.5266 1.99978 13.9606 1.99978C13.3944 1.99978 12.9354 2.44688 12.9355 2.99837L12.9381 22.5613L3.78194 13.6427C3.38104 13.2522 2.731 13.2522 2.33006 13.6427L2.30068 13.6713C1.89977 14.0618 1.89977 14.695 2.30068 15.0855L13.1883 25.6908C13.3099 25.8091 13.4541 25.8916 13.6076 25.9382C13.7184 25.9782 13.8383 26 13.9634 26C14.0748 26 14.182 25.9827 14.2824 25.9507C14.475 25.9136 14.6587 25.8223 14.808 25.677L25.6993 15.0681C26.1002 14.6776 26.1002 14.0444 25.6993 13.6539L25.6699 13.6253C25.269 13.2348 24.619 13.2348 24.218 13.6253L14.9882 22.6157L14.9856 2.99812Z" fill="#000000"/></svg>