<?xml version="1.0" ?><!-- Uploaded to: SVG Repo, www.svgrepo.com, Generator: SVG Repo Mixer Tools -->
<svg width="800px" height="800px" viewBox="0 0 28 28" fill="none" xmlns="http://www.w3.org/2000/svg"><path d="M13.0144 25.0019C13.0145 25.5533 13.4734 26.0002 14.0394 26.0002C14.6056 26.0002 15.0646 25.5531 15.0645 25.0016L15.0619 5.43869L24.2181 14.3573C24.619 14.7478 25.269 14.7478 25.6699 14.3573L25.6993 14.3287C26.1002 13.9382 26.1002 13.305 25.6993 12.9145L14.8117 2.30925C14.6901 2.19086 14.5459 2.10842 14.3924 2.06182C14.2816 2.02184 14.1617 2 14.0366 2C13.9252 2 13.818 2.0173 13.7176 2.04928C13.525 2.08641 13.3413 2.17766 13.192 2.32305L2.3007 12.9319C1.89977 13.3224 1.89977 13.9556 2.3007 14.3461L2.33009 14.3747C2.73099 14.7652 3.38103 14.7652 3.78197 14.3747L13.0118 5.38426L13.0144 25.0019Z" fill="#000000"/></svg>